PathFileType	4	(X/Y/Z)	c:/Users/goper/Files/vsCode/490R/osim_files/C15/C15_Fast_06.trc
DataRate	CameraRate	NumFrames	NumMarkers	Units                	OrigDataRate	OrigDataStartFrame	OrigNumFrames
250.00	250.00	6	36	mm	250.0	1354	2165
                Frame#	Time	LPSIS			LASIS			LTH1			LTH2			LTH3			LTH4			LLFE			LMFE			LSH1			LSH2			LSH3			LSH4			LLMAL			LMMAL			LCAL			LMTP5			LTOE			LMTP1			RPSIS			RASIS			RTH1			RTH2			RTH3			RTH4			RLFE			RMFE			RSH1			RSH2			RSH3			RSH4			RLMAL			RMMAL			RCAL			RMTP1			RTOE			RMTP5		
		X1	Y1	Z1	X2	Y2	Z2	X3	Y3	Z3	X4	Y4	Z4	X5	Y5	Z5	X6	Y6	Z6	X7	Y7	Z7	X8	Y8	Z8	X9	Y9	Z9	X10	Y10	Z10	X11	Y11	Z11	X12	Y12	Z12	X13	Y13	Z13	X14	Y14	Z14	X15	Y15	Z15	X16	Y16	Z16	X17	Y17	Z17	X18	Y18	Z18	X19	Y19	Z19	X20	Y20	Z20	X21	Y21	Z21	X22	Y22	Z22	X23	Y23	Z23	X24	Y24	Z24	X25	Y25	Z25	X26	Y26	Z26	X27	Y27	Z27	X28	Y28	Z28	X29	Y29	Z29	X30	Y30	Z30	X31	Y31	Z31	X32	Y32	Z32	X33	Y33	Z33	X34	Y34	Z34	X35	Y35	Z35	X36	Y36	Z36

1354	5.41200	-1738.07605	998.19055	286.94489	-1911.69592	980.23615	329.73572	-1941.97681	593.53876	404.62131	-1959.43506	551.72125	389.82278	-1988.08899	618.45477	404.26431	-2004.34875	577.23621	393.78052	-1999.86877	494.23422	366.94540	-2010.59045	480.96857	246.24828	-1985.30945	371.87112	376.88379	-2002.25354	330.83102	379.45404	-2042.27332	393.15045	378.68213	-2053.09692	349.86484	382.99951	-2138.80322	99.13807	322.04849	-2149.85864	138.03796	236.82553	-2100.23486	50.35056	273.20947	-2272.38135	107.30215	343.43454	-2306.22412	165.86089	287.95560	-2287.45483	123.41807	229.10999	-1727.20837	1002.13953	165.72296	-1873.33826	975.66815	83.46391	-1750.46521	614.57996	50.79218	-1741.57678	571.25140	61.01491	-1810.09949	603.37378	61.52485	-1795.81262	558.11432	68.80469	-1730.58569	475.96033	90.52131	-1716.88281	467.05374	207.33974	-1613.66467	402.72958	78.46738	-1598.02515	362.23172	77.98159	-1668.74353	371.43478	79.27168	-1644.99353	337.92627	76.17909	-1518.67749	111.33436	152.45067	-1552.32471	129.55167	239.05754	-1449.58691	95.67540	197.17941	-1641.58362	41.35587	239.32079	-1676.61169	56.12022	188.33305	-1617.19800	33.72807	122.01809
1355	5.41600	-1743.55652	997.48877	287.20001	-1917.26831	979.62347	329.82748	-1947.39746	592.81244	404.14706	-1965.06018	551.30792	389.26062	-1993.56812	617.60364	403.38763	-2010.21301	576.90997	393.95383	-2005.56787	493.72427	366.27466	-2016.49756	480.87540	245.77000	-1990.36121	371.27112	375.94470	-2007.20056	330.14450	378.55490	-2047.64868	392.29581	377.82355	-2058.30225	348.98904	382.08734	-2142.24487	97.75107	320.59903	-2153.51294	136.73990	235.50658	-2102.95264	50.53133	272.12610	-2275.95483	105.13459	341.81207	-2309.71851	163.86586	286.54898	-2290.63794	121.52681	227.60078	-1732.61572	1001.31104	165.99969	-1878.57935	974.83899	83.55881	-1754.93835	614.05084	50.97363	-1745.93274	570.70880	61.13945	-1814.62354	602.57129	61.58543	-1800.08435	557.41345	68.70441	-1734.92700	475.28400	90.40290	-1721.52063	466.36154	207.32465	-1617.42273	403.01920	78.47758	-1601.36353	362.76166	77.94990	-1672.14819	371.15823	79.28898	-1648.18372	337.97150	76.17653	-1519.47595	112.60489	152.26015	-1553.43140	130.48108	238.78680	-1450.30579	97.34211	196.94884	-1641.39404	41.72971	239.48520	-1676.66174	56.10473	188.25725	-1617.16309	33.84386	121.91857
1356	5.42000	-1749.12720	996.83429	287.36060	-1922.78821	979.00659	329.95529	-1953.01990	592.07629	403.65671	-1970.66821	550.64203	388.45242	-1999.11938	616.96014	403.21661	-2015.86206	576.34503	393.64749	-2011.30432	493.22400	365.54645	-2022.37622	480.81915	245.29338	-1995.53784	370.67050	375.12460	-2012.19250	329.54523	377.62823	-2053.06860	391.36441	376.85501	-2063.21338	348.02158	381.04684	-2145.95996	96.03430	318.74423	-2156.82861	135.33244	234.16628	-2104.76196	50.37811	271.31058	-2278.73291	102.68933	340.36450	-2312.87866	161.24159	285.02914	-2293.38525	119.06315	226.03967	-1738.07800	1000.49951	166.25191	-1884.09338	974.12598	83.78609	-1759.44653	613.34210	51.19164	-1750.64343	570.01019	61.32088	-1819.30383	601.84259	61.62489	-1804.57861	556.75488	68.61971	-1739.32202	474.60324	90.36889	-1726.35364	465.64954	207.25777	-1621.39551	403.37167	78.44079	-1604.96533	363.29477	77.92105	-1675.73596	370.97260	79.25544	-1651.45154	338.04208	76.11710	-1520.56177	113.75872	151.95581	-1554.58875	131.43462	238.45171	-1451.13196	99.29119	196.69925	-1641.60791	41.80313	239.33635	-1676.67139	56.06153	188.18871	-1617.20874	33.81853	121.89426
1357	5.42400	-1754.87585	996.18073	287.59396	-1928.43628	978.38373	330.04684	-1958.76135	591.35400	403.14954	-1976.29639	549.91791	387.61282	-2004.84131	616.30743	403.06961	-2021.59802	575.79065	393.35208	-2017.18213	492.74332	364.85251	-2028.32935	480.80576	244.78633	-2000.43567	370.15662	374.09494	-2017.04285	328.93271	376.76581	-2058.51538	390.42459	375.94449	-2068.08252	347.08984	380.12781	-2148.00464	95.20322	318.14777	-2159.68994	133.77660	232.79776	-2106.42480	50.45145	270.52884	-2281.36230	99.96700	338.86688	-2315.98486	158.10191	283.35013	-2295.62671	116.06158	224.55708	-1743.63989	999.76746	166.45230	-1889.36401	973.26099	83.84750	-1764.63379	612.87164	51.65075	-1755.45398	569.38812	61.49884	-1824.08960	601.10986	61.70105	-1809.25146	556.01605	68.64054	-1743.99707	474.03452	90.31850	-1731.24707	464.96735	207.21417	-1625.42737	403.75174	78.40740	-1608.50513	363.82089	77.87354	-1679.54883	370.84998	79.17679	-1654.84839	338.08188	76.06381	-1521.36096	115.17036	151.57578	-1555.68774	132.32643	238.27692	-1452.02100	101.20872	196.41101	-1641.84607	41.86002	239.20718	-1676.71619	56.02935	188.07356	-1617.30896	33.80809	121.85816
1358	5.42800	-1760.57336	995.60651	287.73294	-1934.10657	977.79663	330.17239	-1964.56494	590.70404	402.62317	-1982.16479	549.35333	386.93661	-2010.69067	615.62952	402.93811	-2027.46252	575.25690	392.97372	-2022.95630	492.23041	364.14038	-2034.33264	480.84711	244.18108	-2005.50269	369.61792	373.20255	-2021.72290	328.40320	375.93271	-2063.72632	389.49689	374.99747	-2073.04492	346.09637	379.12592	-2150.18213	93.59531	317.02560	-2161.93848	131.86880	231.58008	-2107.77295	50.19547	270.04187	-2283.34277	97.19324	337.40662	-2318.54443	154.59746	281.53485	-2297.39990	112.38769	223.08949	-1749.76196	998.80511	166.76357	-1894.85095	972.45416	83.99844	-1769.57983	612.24457	51.84838	-1760.36694	568.69000	61.67180	-1828.99109	600.37549	61.76195	-1814.07678	555.28687	68.60469	-1748.51526	473.03592	90.33819	-1736.17871	464.23807	207.19060	-1629.54883	404.13220	78.34888	-1612.33667	364.36133	77.77898	-1682.99414	370.86783	78.84897	-1658.21521	338.22070	75.96830	-1522.48254	116.52701	151.23685	-1557.06311	133.50139	237.85414	-1452.96680	103.25433	196.16679	-1642.08716	41.91877	239.04520	-1676.74573	55.98486	188.00415	-1617.48657	33.66459	121.90298
1359	5.43200	-1766.32581	995.13055	288.00467	-1939.88318	977.20844	330.29221	-1970.36145	590.02905	402.13162	-1988.06848	548.77222	386.19263	-2016.47485	615.07916	402.69736	-2033.34143	574.73865	392.57709	-2028.74548	491.69421	363.48209	-2040.25781	480.84702	243.64633	-2010.16211	369.18539	372.17630	-2026.44153	327.87488	375.07642	-2069.00049	388.54498	374.01852	-2077.71191	345.07172	378.14044	-2151.79150	92.06743	316.01886	-2163.64233	129.64613	230.41016	-2108.50684	49.67248	270.09912	-2284.95557	94.45658	335.97601	-2320.76050	150.73415	279.48373	-2298.92773	108.13142	221.55751	-1755.36218	998.12903	167.00713	-1900.43054	971.63373	84.16360	-1774.55872	611.56958	51.99906	-1765.22217	568.15405	61.75386	-1834.03125	599.64294	61.81542	-1819.06592	554.53448	68.55144	-1753.55188	472.56433	90.16961	-1741.22839	463.46521	207.14389	-1633.89612	404.49808	78.26622	-1616.17444	364.95248	77.68497	-1687.34839	370.49399	79.01947	-1661.76599	338.31110	75.88136	-1523.69873	117.95688	151.03584	-1558.25989	134.52740	237.55757	-1453.88159	105.50358	195.85512	-1642.34021	41.98407	238.92650	-1676.78308	55.94193	187.91524	-1617.63257	33.66959	121.86303
